# xmcd
#
# Track frame offsets: 
#        150
#        19107
#        35567
#        52499
#        76878
#        95542
#        111211
#        131022
#        148313
#        167588
#        184191
#
# Disc length: 2783 seconds
#
# Revision: 0
# Processed by: cddbd v1.5.2PL0 Copyright (c) Steve Scherf et al.
# Submitted via: ExactAudioCopyFreeDBPlugin 1.0
#
DISCID=9d0add0b
DTITLE=TJay - Take a Seat
DYEAR=2009
DGENRE=Blues
TTITLE0=State Street Blues
TTITLE1=Hey Fool (Come Again)
TTITLE2=Take a Seat
TTITLE3=Your Easy Eyes
TTITLE4=Goldfish
TTITLE5=Put You Down
TTITLE6=Hey in your Sleep
TTITLE7=Grady on the Run
TTITLE8=My Blues
TTITLE9=Monte
TTITLE10=Pretend You're Driving
EXTD=
EXTT0=
EXTT1=
EXTT2=
EXTT3=
EXTT4=
EXTT5=
EXTT6=
EXTT7=
EXTT8=
EXTT9=
EXTT10=
PLAYORDER=
